<?xml version="1.0" encoding="UTF-8" standalone="no"?>
<svg
   width="358"
   height="358"
   viewBox="0 0 358 358"
   fill="none"
   version="1.1"
   id="svg5"
   sodipodi:docname="figma.svg"
   inkscape:version="1.4.3 (0d15f75042, 2025-12-25)"
   xmlns:inkscape="http://www.inkscape.org/namespaces/inkscape"
   xmlns:sodipodi="http://sodipodi.sourceforge.net/DTD/sodipodi-0.dtd"
   xmlns="http://www.w3.org/2000/svg"
   xmlns:svg="http://www.w3.org/2000/svg">
  <sodipodi:namedview
     id="namedview5"
     pagecolor="#ffffff"
     bordercolor="#000000"
     borderopacity="0.25"
     inkscape:showpageshadow="2"
     inkscape:pageopacity="0.0"
     inkscape:pagecheckerboard="0"
     inkscape:deskcolor="#d1d1d1"
     inkscape:zoom="1.7067039"
     inkscape:cx="95.212766"
     inkscape:cy="201.5581"
     inkscape:window-width="2560"
     inkscape:window-height="1403"
     inkscape:window-x="0"
     inkscape:window-y="0"
     inkscape:window-maximized="1"
     inkscape:current-layer="svg5" />
  <g
     clip-path="url(#clip0_502_63)"
     id="g5"
     transform="matrix(1.4244453,0,0,1.4244453,-75.578146,-75.57836)">
    <path
       d="m 94.9458,262.496 c 0,-23.134 18.7542,-41.888 41.8882,-41.888 h 41.886 v 41.888 c 0,23.134 -18.752,41.888 -41.886,41.888 -23.134,0 -41.8882,-18.754 -41.8882,-41.888 z"
       fill="#24cb71"
       id="path1" />
    <path
       d="m 178.72,53.0581 v 83.7739 h 41.888 c 23.134,0 41.888,-18.752 41.888,-41.8859 0,-23.134 -18.754,-41.888 -41.888,-41.888 z"
       fill="#ff7237"
       id="path2" />
    <path
       d="m 220.26,220.608 c 23.134,0 41.888,-18.754 41.888,-41.888 0,-23.134 -18.754,-41.887 -41.888,-41.887 -23.134,0 -41.887,18.753 -41.887,41.887 0,23.134 18.753,41.888 41.887,41.888 z"
       fill="#00b6ff"
       id="path3" />
    <path
       d="m 94.9458,94.9461 c 0,23.1339 18.7542,41.8879 41.8882,41.8879 H 178.72 V 53.0581 h -41.886 c -23.134,0 -41.8882,18.754 -41.8882,41.888 z"
       fill="#ff3737"
       id="path4" />
    <path
       d="m 94.9458,178.72 c 0,23.134 18.7542,41.888 41.8882,41.888 h 41.886 v -83.774 h -41.886 c -23.134,0 -41.8882,18.752 -41.8882,41.886 z"
       fill="#874fff"
       id="path5" />
  </g>
  <defs
     id="defs5">
    <clipPath
       id="clip0_502_63">
      <rect
         width="357.44"
         height="357.44"
         fill="white"
         id="rect5" />
    </clipPath>
  </defs>
</svg>
