<?xml version="1.0" encoding="UTF-8" standalone="no"?>
<svg
   width="39"
   height="40"
   fill="none"
   viewBox="0 0 32 33"
   version="1.1"
   id="svg3"
   xmlns="http://www.w3.org/2000/svg"
   xmlns:svg="http://www.w3.org/2000/svg">
  <defs
     id="defs3" />
  <path
     fill="#111827"
     fill-opacity="0.2"
     d="M 0,18.83 0.08,6.832 C 0.094,4.66 1.613,2.798 3.71,2.383 L 15.297,0.086 c 2.784,-0.552 5.368,1.627 5.35,4.51 l -0.08,12 c -0.015,2.171 -1.534,4.032 -3.631,4.448 L 5.349,23.341 C 2.565,23.893 -0.019,21.714 0,18.83 Z"
     id="path1" />
  <path
     fill="#111827"
     fill-opacity="0.5"
     d="m 5.677,23.617 0.08,-12 C 5.77,9.447 7.29,7.586 9.387,7.17 L 20.974,4.874 c 2.784,-0.552 5.368,1.626 5.349,4.51 l -0.08,12 c -0.014,2.171 -1.533,4.032 -3.63,4.448 L 11.026,28.129 C 8.242,28.68 5.658,26.502 5.677,23.619 Z"
     id="path2" />
  <path
     fill="#111827"
     fill-opacity="0.8"
     d="m 11.354,28.404 0.08,-12 c 0.014,-2.172 1.533,-4.032 3.63,-4.448 L 26.651,9.659 c 2.784,-0.552 5.368,1.627 5.349,4.51 l -0.08,12 c -0.014,2.172 -1.533,4.033 -3.63,4.448 l -11.587,2.297 c -2.784,0.552 -5.368,-1.627 -5.35,-4.51 z"
     id="path3" />
</svg>
