<?xml version="1.0" encoding="UTF-8" standalone="no"?>
<svg
   height="32"
   viewBox="0 0 32 32"
   width="32"
   fill="#c3efd1"
   version="1.1"
   id="svg4"
   sodipodi:docname="favicon.svg"
   inkscape:version="1.4 (e7c3feb1, 2024-10-09)"
   xmlns:inkscape="http://www.inkscape.org/namespaces/inkscape"
   xmlns:sodipodi="http://sodipodi.sourceforge.net/DTD/sodipodi-0.dtd"
   xmlns:xlink="http://www.w3.org/1999/xlink"
   xmlns="http://www.w3.org/2000/svg"
   xmlns:svg="http://www.w3.org/2000/svg">
  <defs
     id="defs4">
    <linearGradient
       id="linearGradient4"
       inkscape:collect="always">
      <stop
         style="stop-color:#9ccbee;stop-opacity:1;"
         offset="0"
         id="stop4" />
      <stop
         style="stop-color:#cd9bcf;stop-opacity:1;"
         offset="1"
         id="stop5" />
    </linearGradient>
    <linearGradient
       id="linearGradient2"
       inkscape:collect="always">
      <stop
         style="stop-color:#75b6e7;stop-opacity:1;"
         offset="0"
         id="stop2" />
      <stop
         style="stop-color:#b84dc6;stop-opacity:1;"
         offset="1"
         id="stop3" />
    </linearGradient>
    <linearGradient
       inkscape:collect="always"
       xlink:href="#linearGradient2"
       id="linearGradient3"
       x1="0"
       y1="10"
       x2="20"
       y2="10"
       gradientUnits="userSpaceOnUse" />
    <linearGradient
       inkscape:collect="always"
       xlink:href="#linearGradient4"
       id="linearGradient5"
       x1="23.612591"
       y1="10.194342"
       x2="43.612591"
       y2="10.194342"
       gradientUnits="userSpaceOnUse" />
    <linearGradient
       inkscape:collect="always"
       xlink:href="#linearGradient2"
       id="linearGradient1"
       gradientUnits="userSpaceOnUse"
       x1="0"
       y1="10"
       x2="20"
       y2="10" />
    <linearGradient
       inkscape:collect="always"
       xlink:href="#linearGradient2"
       id="linearGradient6"
       gradientUnits="userSpaceOnUse"
       x1="0"
       y1="10"
       x2="20"
       y2="10" />
    <linearGradient
       inkscape:collect="always"
       xlink:href="#linearGradient2"
       id="linearGradient7"
       gradientUnits="userSpaceOnUse"
       x1="0"
       y1="10"
       x2="20"
       y2="10" />
    <linearGradient
       inkscape:collect="always"
       xlink:href="#linearGradient4"
       id="linearGradient8"
       gradientUnits="userSpaceOnUse"
       x1="23.612591"
       y1="10.194342"
       x2="43.612591"
       y2="10.194342" />
    <linearGradient
       inkscape:collect="always"
       xlink:href="#linearGradient4"
       id="linearGradient9"
       gradientUnits="userSpaceOnUse"
       x1="23.612591"
       y1="10.194342"
       x2="43.612591"
       y2="10.194342" />
    <linearGradient
       inkscape:collect="always"
       xlink:href="#linearGradient4"
       id="linearGradient10"
       gradientUnits="userSpaceOnUse"
       x1="23.612591"
       y1="10.194342"
       x2="43.612591"
       y2="10.194342" />
  </defs>
  <sodipodi:namedview
     id="namedview4"
     pagecolor="#ffffff"
     bordercolor="#000000"
     borderopacity="0.25"
     inkscape:showpageshadow="2"
     inkscape:pageopacity="0.0"
     inkscape:pagecheckerboard="0"
     inkscape:deskcolor="#d1d1d1"
     inkscape:zoom="8.1982081"
     inkscape:cx="15.918113"
     inkscape:cy="31.287325"
     inkscape:window-width="1728"
     inkscape:window-height="982"
     inkscape:window-x="0"
     inkscape:window-y="38"
     inkscape:window-maximized="1"
     inkscape:current-layer="svg4">
    <inkscape:page
       x="0"
       y="0"
       width="32"
       height="32"
       id="page1"
       margin="0"
       bleed="0" />
    <inkscape:page
       x="39.103783"
       y="0.43829805"
       width="32"
       height="32"
       id="page2"
       margin="0"
       bleed="0"
       inkscape:export-filename="Page 2.png"
       inkscape:export-xdpi="96"
       inkscape:export-ydpi="96" />
  </sodipodi:namedview>
  <g
     id="g1"
     style="fill:url(#linearGradient3)"
     transform="scale(1.6)">
    <path
       d="M 10,0 C 4.48,0 0,4.48 0,9.9999997 0,15.52 4.48,20 10,20 15.52,20 20,15.52 20,9.9999997 20,4.48 15.52,0 10,0 Z m 0,18 C 5.59,18 2,14.41 2,9.9999997 c 0,-0.05 0.01,-0.1 0.01,-0.15 2.6,-0.98 4.68,-2.99 5.74,-5.5499997 1.83,2.2599997 4.62,3.6999997 7.75,3.6999997 0.75,0 1.47,-0.09 2.17,-0.24 0.21,0.71 0.33,1.46 0.33,2.24 C 18,14.41 14.41,18 10,18 Z"
       id="path3"
       style="opacity:1;fill:url(#linearGradient1);fill-opacity:1"
       sodipodi:nodetypes="sssssssccscss" />
    <circle
       cx="7.0000005"
       cy="11"
       r="1.25"
       id="circle3"
       style="opacity:1;fill:url(#linearGradient6);fill-opacity:1" />
    <circle
       cx="13.000001"
       cy="11"
       r="1.25"
       id="circle4"
       style="opacity:1;fill:url(#linearGradient7);fill-opacity:1" />
  </g>
  <g
     id="g2"
     style="fill:url(#linearGradient5)"
     transform="matrix(1.6,0,0,1.6,1.3236354,0.12735055)">
    <path
       d="m 33.612591,0.194342 c -5.52,0 -10,4.48 -10,10 0,5.52 4.48,10 10,10 5.52,0 10,-4.48 10,-10 0,-5.52 -4.48,-10 -10,-10 z m 0,18 c -4.41,0 -8,-3.59 -8,-8 0,-0.05 0.01,-0.1 0.01,-0.15 2.6,-0.9800003 4.68,-2.9900003 5.74,-5.55 1.83,2.2599997 4.62,3.6999997 7.75,3.6999997 0.75,0 1.47,-0.09 2.17,-0.24 0.21,0.71 0.33,1.46 0.33,2.2400003 0,4.41 -3.59,8 -8,8 z"
       id="path3-0"
       style="opacity:1;fill:url(#linearGradient8);fill-opacity:1"
       sodipodi:nodetypes="sssssssccscss" />
    <circle
       cx="30.612591"
       cy="11.194342"
       r="1.25"
       id="circle3-3"
       style="opacity:1;fill:url(#linearGradient9);fill-opacity:1" />
    <circle
       cx="36.612591"
       cy="11.194342"
       r="1.25"
       id="circle4-9"
       style="opacity:1;fill:url(#linearGradient10);fill-opacity:1" />
  </g>
</svg>
