<?xml version="1.0" encoding="UTF-8" standalone="no"?>
<svg
   height="20"
   viewBox="0 0 20 20"
   width="20"
   fill="#c3efd1"
   version="1.1"
   id="svg4"
   sodipodi:docname="favicon.svg"
   inkscape:version="1.4 (e7c3feb100, 2024-10-09)"
   xmlns:inkscape="http://www.inkscape.org/namespaces/inkscape"
   xmlns:sodipodi="http://sodipodi.sourceforge.net/DTD/sodipodi-0.dtd"
   xmlns="http://www.w3.org/2000/svg"
   xmlns:svg="http://www.w3.org/2000/svg">
  <defs
     id="defs4" />
  <sodipodi:namedview
     id="namedview4"
     pagecolor="#ffffff"
     bordercolor="#000000"
     borderopacity="0.25"
     inkscape:showpageshadow="2"
     inkscape:pageopacity="0.0"
     inkscape:pagecheckerboard="0"
     inkscape:deskcolor="#d1d1d1"
     inkscape:zoom="32.08497"
     inkscape:cx="9.5371758"
     inkscape:cy="12.607149"
     inkscape:window-width="2560"
     inkscape:window-height="1300"
     inkscape:window-x="0"
     inkscape:window-y="0"
     inkscape:window-maximized="1"
     inkscape:current-layer="svg4" />
  <path
     d="M 15.5,6 C 15.96,6 16.41,5.95 16.84,5.88 15.44,3.56 12.9,2 10,2 9.54,2 9.09,2.05 8.66,2.12 10.06,4.44 12.6,6 15.5,6 Z M 6.08,3.03 C 4.37,4 3.05,5.58 2.42,7.4699997 4.13,6.5 5.45,4.92 6.08,3.03 Z"
     opacity="0.3"
     id="path2"
     style="opacity:1;fill:#c2e7fd;fill-opacity:1" />
  <path
     d="M 10,0 C 4.48,0 0,4.48 0,9.9999997 0,15.52 4.48,20 10,20 15.52,20 20,15.52 20,9.9999997 20,4.48 15.52,0 10,0 Z m 0,2 c 2.9,0 5.44,1.56 6.84,3.88 C 16.41,5.95 15.96,6 15.5,6 12.6,6 10.06,4.44 8.66,2.12 9.09,2.05 9.54,2 10,2 Z M 6.08,3.03 C 5.45,4.92 4.13,6.5 2.42,7.4699997 3.05,5.58 4.37,4 6.08,3.03 Z M 10,18 C 5.59,18 2,14.41 2,9.9999997 c 0,-0.05 0.01,-0.1 0.01,-0.15 2.6,-0.98 4.68,-2.99 5.74,-5.5499997 1.83,2.2599997 4.62,3.6999997 7.75,3.6999997 0.75,0 1.47,-0.09 2.17,-0.24 0.21,0.71 0.33,1.46 0.33,2.24 C 18,14.41 14.41,18 10,18 Z"
     id="path3" />
  <circle
     cx="7.0000005"
     cy="11"
     r="1.25"
     id="circle3" />
  <circle
     cx="13.000001"
     cy="11"
     r="1.25"
     id="circle4" />
</svg>
